<svg width="180" height="31" viewBox="0 0 180 31" fill="none" xmlns="http://www.w3.org/2000/svg">
<g clip-path="url(#clip0_124_5785)">
<path fill-rule="evenodd" clip-rule="evenodd" d="M172.433 30.2635C176.669 30.2635 180 28.0677 180 24.0436C180 21.0209 178.042 19.5234 174.51 18.1085L172.634 17.3184C171.216 16.7671 170.594 16.3996 170.594 15.5819C170.594 14.6632 171.417 14.2038 172.671 14.2038C173.938 14.23 175.167 14.6434 176.194 15.389C176.605 15.7032 177.097 15.8943 177.612 15.9402C178.076 15.9324 178.526 15.7769 178.897 15.4961C179.268 15.2154 179.541 14.8237 179.676 14.3776C179.811 13.9314 179.802 13.4537 179.65 13.013C179.498 12.5724 179.21 12.1916 178.829 11.9253C177.092 10.5363 174.927 9.79878 172.707 9.83975C168.59 9.83975 165.57 11.9621 165.57 15.7014C165.57 18.77 167.574 20.2951 170.868 21.6457L172.945 22.5093C174.116 23.0238 174.94 23.3821 174.94 24.2825C174.94 25.385 173.805 25.8995 172.469 25.8995C170.896 25.8619 169.391 25.2438 168.242 24.163C167.818 23.7911 167.277 23.5826 166.714 23.575C166.128 23.5823 165.568 23.822 165.156 24.2419C164.745 24.6617 164.516 25.2278 164.518 25.8168C164.51 26.1307 164.572 26.4424 164.7 26.7288C164.829 27.0151 165.02 27.2687 165.259 27.4705C167.188 29.2911 169.75 30.2806 172.396 30.2268L172.433 30.2635Z" fill="black"/>
<path fill-rule="evenodd" clip-rule="evenodd" d="M20.2033 30.2635C20.8821 30.2611 21.5323 29.9893 22.0123 29.5074C22.4922 29.0255 22.7629 28.3725 22.7653 27.691V12.449C22.7678 12.1081 22.7027 11.7701 22.5739 11.4546C22.4451 11.1392 22.2551 10.8526 22.015 10.6115C21.7752 10.3693 21.4901 10.177 21.176 10.0459C20.862 9.9147 20.5252 9.84717 20.185 9.84717C19.8449 9.84717 19.5081 9.9147 19.194 10.0459C18.8799 10.177 18.5948 10.3693 18.355 10.6115L12.9473 16.0505C12.7061 16.2913 12.5146 16.5776 12.384 16.8929C12.2534 17.2083 12.1861 17.5464 12.1861 17.888C12.1861 18.2295 12.2534 18.5677 12.384 18.883C12.5146 19.1984 12.7061 19.4847 12.9473 19.7255C13.1871 19.9677 13.4723 20.1599 13.7863 20.2911C14.1004 20.4223 14.4372 20.4898 14.7773 20.4898C15.1175 20.4898 15.4543 20.4223 15.7683 20.2911C16.0824 20.1599 16.3675 19.9677 16.6073 19.7255L17.6596 18.6689V27.6818C17.662 28.3649 17.934 29.0192 18.4159 29.5014C18.8978 29.9836 19.5504 30.2543 20.2308 30.2543L20.2033 30.2635Z" fill="black"/>
<path fill-rule="evenodd" clip-rule="evenodd" d="M2.57115 30.2635C3.25074 30.2611 3.90196 29.9896 4.38337 29.5079C4.86477 29.0263 5.1375 28.3734 5.14231 27.691V18.6781L6.19457 19.7255C6.43437 19.9677 6.71951 20.1599 7.03357 20.2911C7.34764 20.4223 7.68443 20.4898 8.02458 20.4898C8.36473 20.4898 8.70153 20.4223 9.01559 20.2911C9.32966 20.1599 9.61479 19.9677 9.85459 19.7255C10.0958 19.4847 10.2873 19.1984 10.4179 18.883C10.5486 18.5677 10.6158 18.2295 10.6158 17.888C10.6158 17.5464 10.5486 17.2082 10.4179 16.8929C10.2873 16.5775 10.0958 16.2912 9.85459 16.0505L4.36456 10.5839C4.12476 10.3417 3.83962 10.1495 3.52556 10.0183C3.21149 9.88711 2.8747 9.81958 2.53455 9.81958C2.19439 9.81958 1.8576 9.88711 1.54354 10.0183C1.22947 10.1495 0.944337 10.3417 0.704534 10.5839C0.464445 10.825 0.274475 11.1116 0.145669 11.427C0.0168619 11.7425 -0.0482122 12.0805 -0.0457712 12.4214V27.691C-0.0409555 28.3734 0.23177 29.0263 0.713177 29.5079C1.19458 29.9896 1.8458 30.2611 2.5254 30.2635H2.57115Z" fill="url(#paint0_linear_124_5785)"/>
<path fill-rule="evenodd" clip-rule="evenodd" d="M27.1757 6.96405V27.5532C27.1646 27.9059 27.2245 28.2573 27.3516 28.5863C27.4787 28.9153 27.6705 29.2152 27.9156 29.4682C28.1607 29.7211 28.454 29.9219 28.7781 30.0586C29.1022 30.1952 29.4503 30.2649 29.8018 30.2635C30.4648 30.2638 31.102 30.0051 31.5784 29.5422C32.0549 29.0792 32.3332 28.4483 32.3546 27.7829C33.0978 28.6095 34.0141 29.2607 35.0377 29.6896C36.0613 30.1185 37.1668 30.3145 38.2747 30.2635C43.7648 30.2635 47.681 25.9729 47.681 20.0746C47.681 14.1762 43.719 9.87648 38.2747 9.87648C37.1996 9.83465 36.1277 10.0199 35.1284 10.4203C34.1291 10.8207 33.2247 11.4273 32.4736 12.2009V6.96405C32.4937 6.6069 32.4404 6.24942 32.3171 5.91381C32.1938 5.5782 32.0031 5.27163 31.7568 5.01315C31.5106 4.75466 31.214 4.54979 30.8855 4.41125C30.5571 4.27271 30.2038 4.20346 29.8475 4.20781C29.489 4.20249 29.1331 4.27071 28.8017 4.4083C28.4703 4.54589 28.1704 4.74994 27.9202 5.00797C27.6701 5.26599 27.4751 5.57256 27.347 5.90891C27.219 6.24525 27.1607 6.60429 27.1757 6.96405ZM37.2957 25.4309C34.3493 25.4309 32.3912 23.2626 32.3912 20.0746C32.3912 16.8865 34.3951 14.6815 37.2957 14.6815C37.9808 14.6815 38.6586 14.8223 39.2876 15.095C39.9165 15.3678 40.4832 15.7669 40.9529 16.2677C41.4225 16.7686 41.7852 17.3606 42.0186 18.0073C42.2519 18.6541 42.3511 19.342 42.3099 20.0286C42.3099 23.1799 40.2328 25.4309 37.2957 25.4309Z" fill="black"/>
<path fill-rule="evenodd" clip-rule="evenodd" d="M51.6429 12.5501V21.2139C51.6429 26.5702 55.303 30.2636 60.6192 30.2636C65.8347 30.2636 69.5222 26.5886 69.5222 21.2139V12.5501C69.5434 12.1877 69.4906 11.8247 69.3671 11.4835C69.2436 11.1423 69.0519 10.83 68.8038 10.5659C68.5558 10.3017 68.2566 10.0913 67.9246 9.94742C67.5926 9.80357 67.2348 9.72937 66.8732 9.72937C66.5116 9.72937 66.1539 9.80357 65.8219 9.94742C65.4899 10.0913 65.1907 10.3017 64.9426 10.5659C64.6946 10.83 64.5029 11.1423 64.3794 11.4835C64.2558 11.8247 64.2031 12.1877 64.2243 12.5501V21.6457C64.2509 22.1337 64.1768 22.6219 64.0066 23.0797C63.8364 23.5375 63.5738 23.9551 63.2353 24.3062C62.8968 24.6573 62.4896 24.9344 62.0395 25.12C61.5893 25.3057 61.1057 25.3959 60.6192 25.385C60.1295 25.3981 59.6424 25.3098 59.1882 25.1257C58.734 24.9416 58.3224 24.6655 57.9791 24.3148C57.6357 23.964 57.368 23.546 57.1925 23.0868C57.0171 22.6276 56.9376 22.1371 56.9591 21.6457V12.5501C56.9591 11.8459 56.6805 11.1706 56.1846 10.6726C55.6887 10.1747 55.0161 9.89495 54.3148 9.89495C53.6134 9.89495 52.9408 10.1747 52.4449 10.6726C51.949 11.1706 51.6704 11.8459 51.6704 12.5501H51.6429Z" fill="black"/>
<path fill-rule="evenodd" clip-rule="evenodd" d="M154.48 30.2635C158.708 30.2635 162.038 28.0677 162.038 24.0436C162.038 21.0209 160.08 19.5234 156.594 18.1085L154.709 17.3184C153.3 16.7671 152.669 16.3996 152.669 15.5819C152.669 14.6632 153.492 14.2038 154.746 14.2038C156.016 14.2287 157.248 14.6422 158.278 15.389C158.687 15.7016 159.175 15.8926 159.687 15.9403C160.151 15.9324 160.601 15.7769 160.972 15.4961C161.343 15.2154 161.616 14.8237 161.751 14.3776C161.886 13.9314 161.877 13.4537 161.725 13.0131C161.573 12.5724 161.285 12.1916 160.904 11.9253C159.171 10.5349 157.009 9.79707 154.792 9.83977C150.674 9.83977 147.655 11.9621 147.655 15.7014C147.655 18.77 149.649 20.2951 152.943 21.6457L155.02 22.5093C156.201 23.0238 157.024 23.3821 157.024 24.2825C157.024 25.385 155.89 25.8995 154.554 25.8995C152.978 25.8565 151.472 25.2393 150.317 24.163C149.894 23.7897 149.352 23.581 148.789 23.575C148.203 23.5823 147.643 23.822 147.231 24.2419C146.82 24.6618 146.591 25.2278 146.593 25.8168C146.586 26.1313 146.65 26.4433 146.78 26.7296C146.91 27.0159 147.103 27.2691 147.343 27.4705C149.266 29.294 151.827 30.2841 154.471 30.2268L154.48 30.2635Z" fill="black"/>
<path fill-rule="evenodd" clip-rule="evenodd" d="M80.8499 30.2635C85.0864 30.2635 88.417 28.0677 88.417 24.0436C88.417 21.0209 86.4589 19.5234 82.927 18.1085L81.097 17.3184C79.6787 16.7671 79.0565 16.3996 79.0565 15.5819C79.0565 14.6632 79.88 14.2038 81.1336 14.2038C82.4031 14.2316 83.6344 14.6448 84.6655 15.389C85.0717 15.7066 85.5615 15.8981 86.0746 15.9402C86.5359 15.925 86.9807 15.7642 87.3459 15.4806C87.711 15.1971 87.9778 14.8052 88.1085 14.3607C88.2392 13.9162 88.2271 13.4416 88.0738 13.0045C87.9206 12.5673 87.6341 12.1897 87.2549 11.9253C85.5182 10.5363 83.3535 9.79878 81.1336 9.83975C77.016 9.83975 73.9965 11.9621 73.9965 15.7014C73.9965 18.77 76.0004 20.2951 79.2944 21.6457L81.3989 22.4817C82.5701 22.9962 83.3936 23.3545 83.3936 24.2549C83.3936 25.3574 82.259 25.8719 80.9231 25.8719C79.3494 25.8344 77.8445 25.2162 76.6958 24.1355C76.2721 23.7635 75.7304 23.5551 75.1677 23.5475C74.5812 23.5547 74.0213 23.7944 73.61 24.2143C73.1987 24.6342 72.9692 25.2003 72.9717 25.7892C72.9633 26.1031 73.0256 26.4149 73.1539 26.7012C73.2822 26.9876 73.4733 27.2411 73.7129 27.443C75.6413 29.2636 78.2034 30.253 80.8499 30.1992V30.2635Z" fill="black"/>
<path fill-rule="evenodd" clip-rule="evenodd" d="M95.0783 -3.37891e-05C94.4521 0.0198041 93.8456 0.224122 93.3343 0.587485C92.8229 0.950847 92.4293 1.4572 92.2024 2.04352C91.9755 2.62983 91.9254 3.2702 92.0583 3.8849C92.1911 4.4996 92.5011 5.06149 92.9497 5.5006C93.3982 5.93972 93.9655 6.23667 94.5808 6.35448C95.1962 6.4723 95.8325 6.40577 96.4105 6.16319C96.9885 5.92061 97.4827 5.51269 97.8315 4.99021C98.1803 4.46773 98.3684 3.85377 98.3723 3.22477C98.3602 2.3589 98.0067 1.53317 97.3892 0.928647C96.7717 0.324124 95.9406 -0.00984825 95.0783 -3.37891e-05ZM95.0783 30.2635C95.4324 30.2686 95.784 30.2017 96.1117 30.0668C96.4395 29.932 96.7367 29.7319 96.9854 29.4787C97.2342 29.2255 97.4293 28.9244 97.5592 28.5935C97.689 28.2626 97.7508 27.9087 97.7409 27.5532V12.5501C97.7409 11.8459 97.4623 11.1705 96.9664 10.6726C96.4705 10.1746 95.7979 9.89488 95.0966 9.89488C94.3952 9.89488 93.7226 10.1746 93.2267 10.6726C92.7308 11.1705 92.4522 11.8459 92.4522 12.5501V27.5532C92.4412 27.9029 92.4999 28.2512 92.6247 28.5778C92.7496 28.9044 92.9382 29.2026 93.1794 29.4551C93.4205 29.7075 93.7095 29.909 94.0293 30.0479C94.3491 30.1867 94.6933 30.26 95.0417 30.2635H95.0783Z" fill="black"/>
<path fill-rule="evenodd" clip-rule="evenodd" d="M102.956 12.5501V27.5533C102.947 27.9096 103.009 28.2642 103.139 28.5957C103.269 28.9273 103.465 29.2288 103.715 29.4821C103.965 29.7355 104.263 29.9353 104.592 30.0696C104.921 30.2039 105.273 30.2699 105.628 30.2636C105.985 30.2753 106.34 30.213 106.671 30.0806C107.002 29.9481 107.303 29.7484 107.553 29.494C107.804 29.2396 108 28.9359 108.128 28.6019C108.257 28.2679 108.315 27.9109 108.3 27.5533V18.4209C108.275 17.9265 108.351 17.4321 108.525 16.9687C108.698 16.5053 108.965 16.0828 109.309 15.7276C109.652 15.3724 110.065 15.0921 110.521 14.9042C110.977 14.7163 111.467 14.6249 111.96 14.6357C112.452 14.62 112.942 14.7086 113.397 14.8955C113.852 15.0825 114.264 15.3636 114.604 15.7207C114.944 16.0778 115.205 16.5028 115.371 16.968C115.537 17.4332 115.603 17.9283 115.565 18.4209V27.5533C115.554 27.906 115.614 28.2574 115.741 28.5864C115.868 28.9154 116.06 29.2153 116.305 29.4683C116.55 29.7212 116.844 29.922 117.168 30.0586C117.492 30.1953 117.84 30.265 118.191 30.2636C118.545 30.2716 118.896 30.2064 119.223 30.0721C119.55 29.9377 119.846 29.7371 120.092 29.4828C120.339 29.2285 120.53 28.9259 120.655 28.5939C120.78 28.2619 120.835 27.9076 120.817 27.5533V17.7135C120.817 12.9452 117.953 9.87656 113.497 9.87656C111.48 9.82685 109.518 10.5457 108.007 11.8886C107.89 11.3219 107.582 10.8129 107.136 10.4467C106.69 10.0804 106.132 9.87917 105.555 9.87656C105.205 9.87021 104.857 9.93523 104.533 10.0677C104.208 10.2002 103.914 10.3973 103.668 10.6472C103.421 10.8971 103.228 11.1946 103.1 11.5217C102.971 11.8488 102.91 12.1986 102.92 12.5501H102.956Z" fill="black"/>
<path fill-rule="evenodd" clip-rule="evenodd" d="M134.835 9.87652C133.501 9.85764 132.176 10.1092 130.94 10.6162C129.704 11.1232 128.583 11.8752 127.644 12.8272C126.704 13.7792 125.965 14.9117 125.472 16.157C124.978 17.4022 124.739 18.7347 124.77 20.0746C124.77 25.8995 129.281 30.2635 135.393 30.2635C137.583 30.2811 139.727 29.6413 141.551 28.426C141.946 28.2283 142.279 27.926 142.514 27.5519C142.75 27.1778 142.879 26.7462 142.887 26.3037C142.89 26.0204 142.836 25.7395 142.727 25.4778C142.619 25.2161 142.459 24.979 142.258 24.7808C142.056 24.5826 141.817 24.4274 141.554 24.3244C141.291 24.2214 141.01 24.1727 140.728 24.1814C140.325 24.1906 139.932 24.3114 139.593 24.5305C138.378 25.2831 136.977 25.6779 135.549 25.6698C132.694 25.6698 130.727 24.2549 130.105 21.8202H141.158C141.535 21.8574 141.915 21.8129 142.273 21.6898C142.632 21.5666 142.959 21.3676 143.234 21.1063C143.509 20.845 143.725 20.5274 143.867 20.1751C144.01 19.8227 144.075 19.4438 144.059 19.064V18.9446C144.079 17.7316 143.854 16.527 143.395 15.4047C142.936 14.2823 142.254 13.2656 141.391 12.4169C140.528 11.5681 139.501 10.905 138.374 10.4682C137.247 10.0315 136.043 9.83012 134.835 9.87652ZM134.753 14.213C135.291 14.1765 135.83 14.2514 136.338 14.4329C136.846 14.6145 137.311 14.8988 137.705 15.2684C138.099 15.638 138.413 16.0848 138.627 16.5813C138.842 17.0778 138.953 17.6132 138.953 18.1544H130.132C130.317 17.0565 130.882 16.0594 131.727 15.3385C132.573 14.6175 133.644 14.219 134.753 14.213Z" fill="black"/>
</g>
<defs>
<linearGradient id="paint0_linear_124_5785" x1="-0.244328" y1="17.2176" x2="-2.90282" y2="8.69212" gradientUnits="userSpaceOnUse">
<stop stop-color="#EABD2C"/>
<stop offset="1" stop-color="#FAF038"/>
</linearGradient>
<clipPath id="clip0_124_5785">
<rect width="180" height="30.2727" fill="white"/>
</clipPath>
</defs>
</svg>
